# xmcd
#
# Track frame offsets: 
#        150
#        16474
#        29775
#        46030
#        61981
#        75805
#        89512
#        102159
#        115923
#        134791
#        152485
#        166684
#        181010
#
# Disc length: 2576 seconds
#
# Revision: 2
# Processed by: cddbd v1.5.2PL0 Copyright (c) Steve Scherf et al.
# Submitted via: ExactAudioCopy v1.3
#
DISCID=980a0e0d
DTITLE=Thalía - Valiente
DYEAR=2018
DGENRE=Latin
TTITLE0=No Me Acuerdo
TTITLE1=Lindo Pero Bruto
TTITLE2=Lento
TTITLE3=Sube, Sube
TTITLE4=Tú Me Sientas Tan Bien
TTITLE5=Vamos Órale
TTITLE6=Ahí
TTITLE7=Corazón Valiente
TTITLE8=Que Ironía
TTITLE9=Por Amor Al Arte
TTITLE10=Ay Amor
TTITLE11=Vikingo
TTITLE12=Me Oyen, Me Escuchan
EXTD=
EXTT0=
EXTT1=
EXTT2=
EXTT3=
EXTT4=
EXTT5=
EXTT6=
EXTT7=
EXTT8=
EXTT9=
EXTT10=
EXTT11=
EXTT12=
PLAYORDER=
